PathFileType	4	(X/Y/Z)	P:\Projects\LMB_grand_challenge_database\project_only\opensim\experimental_data\SixthCompetition/DM_smooth1_new.trc
DataRate	CameraRate	NumFrames	NumMarkers	Units	OrigDataRate	OrigDataStartFrame	OrigNumFrames
120	120	4	68	mm	120	138	370
Frame#	Time	Sternum			Neck			R_Shoulder			L_Shoulder			Xiphoid			Thoracic			R_Asis			L_Asis			R_Psis			L_Psis			Lumbar			R_Elbow			R_ElbowMedial			R_ShoulderAnterior			R_ShoulderPosterior			R_Wrist			R_Radius			R_Ulna			L_Elbow			L_ElbowMedial			L_ShoulderAnterior			L_ShoulderPosterior			L_Wrist			L_Ulna			L_Radius			L_Thigh_Superior			L_Thigh_Inferior			L_Thigh_Lateral			L_Knee_Lateral			L_Knee_Medial			L_Patella			L_Shank_Superior			L_Shank_Inferior			L_Shank_Lateral			L_Ankle_Lateral			L_Ankle_Medial			R_Thigh_Superior			R_Thigh_Inferior			R_Thigh_Lateral			R_Knee_Lateral			R_Knee_Medial			R_Patella			R_Shank_Superior			R_Shank_Inferior			R_Shank_Lateral			R_Ankle_Lateral			RankleMedial			R_Heel			R_Toe			R_Midfoot_Medial			R_Midfoot_Lateral			R_Hindfoot			R_Midfoot_Superior			R_ToeMedial			R_ToeLateral			L_Heel			L_Toe			L_Midfoot_Medial			L_Midfoot_Lateral			L_Hindfoot			L_Midfoot_Superior			L_ToeMedial			L_ToeLateral			Oglobal			Sacral			Xglobal			Yglobal			Zglobal			
		X1	Y1	Z1	X2	Y2	Z2	X3	Y3	Z3	X4	Y4	Z4	X5	Y5	Z5	X6	Y6	Z6	X7	Y7	Z7	X8	Y8	Z8	X9	Y9	Z9	X10	Y10	Z10	X11	Y11	Z11	X12	Y12	Z12	X13	Y13	Z13	X14	Y14	Z14	X15	Y15	Z15	X16	Y16	Z16	X17	Y17	Z17	X18	Y18	Z18	X19	Y19	Z19	X20	Y20	Z20	X21	Y21	Z21	X22	Y22	Z22	X23	Y23	Z23	X24	Y24	Z24	X25	Y25	Z25	X26	Y26	Z26	X27	Y27	Z27	X28	Y28	Z28	X29	Y29	Z29	X30	Y30	Z30	X31	Y31	Z31	X32	Y32	Z32	X33	Y33	Z33	X34	Y34	Z34	X35	Y35	Z35	X36	Y36	Z36	X37	Y37	Z37	X38	Y38	Z38	X39	Y39	Z39	X40	Y40	Z40	X41	Y41	Z41	X42	Y42	Z42	X43	Y43	Z43	X44	Y44	Z44	X45	Y45	Z45	X46	Y46	Z46	X47	Y47	Z47	X48	Y48	Z48	X49	Y49	Z49	X50	Y50	Z50	X51	Y51	Z51	X52	Y52	Z52	X53	Y53	Z53	X54	Y54	Z54	X55	Y55	Z55	X56	Y56	Z56	X57	Y57	Z57	X58	Y58	Z58	X59	Y59	Z59	X60	Y60	Z60	X61	Y61	Z61	X62	Y62	Z62	X63	Y63	Z63	X64	Y64	Z64	X65	Y65	Z65	X66	Y66	Z66	X67	Y67	Z67	X68	Y68	Z68	

139	2.25	-226.274	1385.41	172.219	-395.452	1443.94	182.882	-277.553	1401.91	348.039	-318.931	1401.52	-0.993495	-191.737	1213.84	180.938	-464.447	1255.45	177.719	-279.702	967.903	318.983	-250.776	982.127	44.2595	-471.761	1011.81	193.048	-464.919	1009.97	115.681	-466.902	1060.23	158.899	-282.314	1083.42	443.132	-0	0	0	-0	0	0	-0	0	0	-203.189	814.994	427.207	-202.425	822.034	384.212	-250.722	816.502	438.468	-350.193	1067.8	-106.592	-0	0	0	-0	0	0	-0	0	0	-281.638	805.263	-94.6294	-321.772	818.965	-121.282	-297.016	820.978	-49.9984	-296.813	800.982	11.4562	-227.847	590.808	74.8394	-199.059	686.6849999999999	91.6861	-0	0	0	-0	0	0	-187.576	504.365	144.591	-253.71	434.807	71.23690000000001	-330.49	175.678	69.8801	-270.013	293.322	147.316	-0	0	0	-0	0	0	-334.079	779.97	339.747	-283.781	574.985	330.775	-242.846	712.338	348.105	-0	0	0	-0	0	0	-192.022	475.183	284.966	-377.538	451.492	334.225	-511.356	296.848	309.501	-366.896	340.09	261.375	-0	0	0	-0	0	0	-643.735	254.156	236.2	-443.118	36.4497	283.834	-501.002	75.0624	216.998	-534.427	82.91889999999999	329.13	-610.327	159.607	299.358	-491.94	179.355	273.141	-467.395	50.9133	234.185	-491.657	55.604	321.377	-429.252	61.0408	118.023	-129.446	52.4031	130.043	-213.369	31.7852	178.902	-218.787	31.2618	64.5496	-325.16	26.5515	66.8732	-265.428	117.345	122.003	-169.907	34.5461	169.785	-164.889	36.4647	75.3274	-0	0	0	-468.34	1010.89	154.365	-200	0	0	-0	0	200	-0	200	0	
140	2.258333	-217.461	1386.07	173.089	-386.602	1444.8	182.873	-269.668	1402.66	348.691	-309.382	1402.42	-0.498128	-183.415	1214.32	181.669	-456.19	1256.45	177.584	-271.781	968.457	318.974	-242.534	983.182	44.2419	-463.65	1012.85	192.921	-456.751	1011.04	115.431	-458.715	1061.27	158.829	-277.788	1084	443.884	-0	0	0	-0	0	0	-0	0	0	-199.133	815.5119999999999	428.802	-197.306	822.573	386.062	-246.757	816.898	439.601	-336.587	1068.43	-106.805	-0	0	0	-0	0	0	-0	0	0	-263.528	807.474	-94.1773	-303.486	820.225	-121.286	-279.553	822.4690000000001	-49.5214	-289.853	801.846	11.6199	-224.826	590.395	75.1541	-194.42	686.2430000000001	92.65000000000001	-0	0	0	-0	0	0	-185.07	503.628	144.334	-252.503	434.472	71.46680000000001	-329.992	175.741	69.9469	-268.695	293.259	147.227	-0	0	0	-0	0	0	-327.396	782.178	342.735	-269.243	577.508	331.84	-230.439	715.65	348.509	-0	0	0	-0	0	0	-175.002	479.821	285.757	-359.381	451.101	335.746	-488.766	292.323	311.191	-346.569	340.299	262.186	-0	0	0	-0	0	0	-620.367	244.736	238.162	-410.659	35.379	284.407	-470.066	72.0681	217.881	-503.325	78.1768	330.171	-582.811	151.577	300.93	-465.196	176.462	274.298	-436.038	49.074	234.873	-459.878	52.5166	322.265	-429.265	61.0765	118.055	-129.423	52.2868	130.056	-213.376	31.6147	178.811	-218.827	31.3266	64.4589	-325.232	26.6663	66.8223	-265.203	117.384	122.107	-169.855	34.5609	169.871	-164.862	36.4376	75.3276	-0	0	0	-460.2	1011.95	154.176	-200	0	0	-0	0	200	-0	200	0	
141	2.266667	-208.754	1386.68	173.835	-377.85	1445.69	182.868	-261.871	1403.14	349.463	-299.531	1403.09	0.017777	-174.965	1215.04	182.49	-447.7	1257.43	177.52	-263.679	969.421	319.143	-234.18	983.9349999999999	44.4045	-455.465	1013.64	192.897	-448.477	1011.98	115.29	-450.458	1062.13	158.747	-272.773	1084.54	444.836	-0	0	0	-0	0	0	-0	0	0	-195.083	815.7910000000001	430.542	-192.463	822.889	387.937	-242.629	817.384	440.29	-322.969	1069.13	-107.016	-0	0	0	-0	0	0	-0	0	0	-244.952	809.718	-93.68680000000001	-285.23	821.444	-120.905	-261.616	824.386	-49.2089	-282.249	802.67	12.2329	-221.405	590.071	75.0975	-189.721	685.812	93.6841	-0	0	0	-0	0	0	-182.922	502.596	144.226	-250.107	434.121	71.36539999999999	-329.645	175.783	69.96769999999999	-267.267	293.311	147.308	-0	0	0	-0	0	0	-324.984	785.842	347.612	-254.422	579.801	332.695	-219.282	718.987	349.604	-0	0	0	-0	0	0	-158.242	484.722	286.818	-341.282	450.319	336.907	-465.486	287.147	312.825	-326.162	340.072	262.784	-0	0	0	-0	0	0	-596.396	234.88	240.33	-378.541	34.382	284.811	-438.188	69.60080000000001	218.668	-471.385	73.4984	331.075	-554.601	143.208	302.495	-437.304	173.486	275.851	-404.178	46.7924	235.629	-427.669	49.4418	323.167	-429.278	60.9835	118.607	-129.488	52.2445	130.053	-213.166	31.413	178.514	-219.023	31.4412	64.1824	-325.257	26.6733	66.8163	-265.068	117.376	122.237	-169.843	34.5355	169.829	-164.836	36.4043	75.3896	-0	0	0	-451.971	1012.81	154.093	-200	0	0	-0	0	200	-0	200	0	
142	2.275	-199.974	1387.47	174.783	-369.233	1446.49	182.926	-254.09	1403.87	349.983	-290.119	1403.83	0.468667	-166.656	1215.69	183.224	-439.319	1258.42	177.358	-255.54	969.998	319.154	-225.909	984.849	44.5301	-447.253	1014.48	192.889	-440.263	1012.96	115.222	-442.193	1063.02	158.83	-267.551	1085.05	445.558	-0	0	0	-0	0	0	-0	0	0	-190.95	816.222	432.281	-187.455	823.294	389.752	-238.776	817.572	441.367	-309.308	1069.84	-106.953	-0	0	0	-0	0	0	-0	0	0	-226.596	812.311	-93.2636	-267.219	822.793	-120.539	-243.96	826.269	-48.5729	-274.594	803.605	12.7417	-218.253	589.597	75.07989999999999	-184.914	685.473	94.5621	-0	0	0	-0	0	0	-180.884	502.274	144.115	-249.045	433.963	71.68770000000001	-329.317	175.916	70.1895	-266.35	293.242	147.363	-0	0	0	-0	0	0	-318.049	787.354	349.004	-240.632	582.447	333.808	-208.266	722.187	350.537	-0	0	0	-0	0	0	-141.889	489.752	287.413	-323.942	449.488	338.831	-441.964	282.02	314.38	-305.227	340.029	263.675	-0	0	0	-0	0	0	-571.739	224.705	242.499	-345.179	33.5125	285.5	-407.045	66.045	219.713	-439.657	68.5278	332.331	-525.758	134.73	304.371	-409.896	169.801	276.998	-371.603	44.4817	236.436	-394.76	46.4749	324.481	-430.923	62.9312	116.253	-129.447	52.2804	130.103	-216.428	31.1522	180.67	-220.104	29.8035	66.2547	-325.384	26.6482	66.7717	-265.01	117.435	122.374	-169.397	34.7938	170.574	-164.781	36.4056	75.4889	-0	0	0	-443.758	1013.72	154.055	-200	0	0	-0	0	200	-0	200	0	
